HIERARCHY
ROOT Hips
{
	OFFSET 0.00000 0.00000 0.00000
	CHANNELS 6 Xposition Yposition Zposition Zrotation Yrotation Xrotation 
	JOINT LHipJoint
	{
		OFFSET 0 0 0
		CHANNELS 3 Zrotation Yrotation Xrotation
		JOINT LeftHip
		{
			OFFSET 1.58161 -1.81893 0.78828
			CHANNELS 3 Zrotation Yrotation Xrotation
			JOINT LeftKnee
			{
				OFFSET 2.53374 -6.96141 0.00000
				CHANNELS 3 Zrotation Yrotation Xrotation
				JOINT LeftAnkle
				{
					OFFSET 2.63509 -7.23986 0.00000
					CHANNELS 3 Zrotation Yrotation Xrotation
					JOINT LeftToe
					{
						OFFSET 0.14115 -0.38781 2.05350
						CHANNELS 3 Zrotation Yrotation Xrotation
						End Site
						{
							OFFSET 0.00000 -0.00000 1.05543
						}
					}
				}
			}
		}
	}
	JOINT RHipJoint
	{
		OFFSET 0 0 0
		CHANNELS 3 Zrotation Yrotation Xrotation
		JOINT RightHip
		{
			OFFSET -1.11138 -1.81893 0.78828
			CHANNELS 3 Zrotation Yrotation Xrotation
			JOINT RightKnee
			{
				OFFSET -2.58392 -7.09926 0.00000
				CHANNELS 3 Zrotation Yrotation Xrotation
				JOINT RightAnkle
				{
					OFFSET -2.66423 -7.31992 0.00000
					CHANNELS 3 Zrotation Yrotation Xrotation
					JOINT RightToe
					{
						OFFSET -0.18831 -0.51739 2.12114
						CHANNELS 3 Zrotation Yrotation Xrotation
						End Site
						{
							OFFSET -0.00000 -0.00000 1.09845
						}
					}
				}
			}
		}
	}
	JOINT lowerback
	{
		OFFSET 0 0 0
		CHANNELS 3 Zrotation Yrotation Xrotation
		JOINT Chest
		{
			OFFSET -0.01511 1.97958 -0.08829
			CHANNELS 3 Zrotation Yrotation Xrotation
			JOINT Chest2
			{
				OFFSET 0.08344 1.97334 -0.04330
				CHANNELS 3 Zrotation Yrotation Xrotation
				JOINT lowerneck
				{
					OFFSET 0 0 0
					CHANNELS 3 Zrotation Yrotation Xrotation
					JOINT Neck
					{
						OFFSET 0.00559 1.76246 0.31246
						CHANNELS 3 Zrotation Yrotation Xrotation
						JOINT Head
						{
							OFFSET -0.07011 1.80354 -0.30524
							CHANNELS 3 Zrotation Yrotation Xrotation
							End Site
							{
								OFFSET -0.02385 1.83547 -0.13906
							}
						}
					}
				}
				JOINT LeftCollar
				{
					OFFSET 0 0 0
					CHANNELS 3 Zrotation Yrotation Xrotation
					JOINT LeftShoulder
					{
						OFFSET 3.20667 1.30156 -0.60240
CHANNELS 3 Zrotation Xrotation Yrotation
						JOINT LeftElbow
						{
OFFSET 0 -4.956630 0.000000
CHANNELS 3 Zrotation Xrotation Yrotation
							JOINT LeftWrist
							{
OFFSET 0 -3.381770 0.000000
CHANNELS 3 Zrotation Xrotation Yrotation
								JOINT lhand
								{
									OFFSET 0 0 0
CHANNELS 3 Zrotation Xrotation Yrotation
									JOINT LFingers
									{
OFFSET 0 -0.662910 0.000000
CHANNELS 3 Zrotation Xrotation Yrotation
										End Site
										{
OFFSET 0 -0.534450 0.000000
										}
									}
								}
								JOINT LThumb
								{
OFFSET 0 0.000000 0.000000
CHANNELS 3 Zrotation Xrotation Yrotation
									End Site
									{
OFFSET 0 -0.542610 0.542610
									}
								}
							}
						}
					}
				}
				JOINT RightCollar
				{
					OFFSET 0 0 0
					CHANNELS 3 Zrotation Yrotation Xrotation
					JOINT RightShoulder
					{
						OFFSET -3.06877 1.34672 -0.60964
CHANNELS 3 Zrotation Xrotation Yrotation
						JOINT RightElbow
						{
OFFSET 0 -5.083650 0.000000
CHANNELS 3 Zrotation Xrotation Yrotation
							JOINT RightWrist
							{
OFFSET 0 -3.359840 0.000000
CHANNELS 3 Zrotation Xrotation Yrotation
								JOINT rhand
								{
									OFFSET 0 0 0
CHANNELS 3 Zrotation Xrotation Yrotation
									JOINT RFingers
									{
OFFSET 0 -0.820760 0.000000
CHANNELS 3 Zrotation Xrotation Yrotation
										End Site
										{
OFFSET 0 -0.661720 0.000000
										}
									}
								}
								JOINT RThumb
								{
OFFSET 0 0.000000 0.000000
CHANNELS 3 Zrotation Xrotation Yrotation
									End Site
									{
OFFSET 0 -0.671820 0.671820
									}
								}
							}
						}
					}
				}
			}
		}
	}
}
MOTION
Frames: 5
Frame Time: 0.008333333333333333
-1.473057 17.640250 -2.151635 24.265902 27.784094 75.399539 0.000000 0.000000 0.000000 -1.875264 -13.845420 -30.144441 2.692910 10.180486 29.563186 0.303124 1.294855 10.026123 0.451047 -4.305633 -11.938535 0.000000 0.000000 0.000000 -1.904435 4.103318 -88.888415 -3.008270 -10.708328 31.302507 0.149470 -8.185783 -7.790332 -1.052557 -6.523557 18.311460 12.355889 9.457839 34.244195 14.384620 16.467940 13.152227 3.405840 7.596229 -3.590685 11.570630 -16.313064 -10.499782 -6.696809 -24.468758 -7.247598 -3.390892 -12.727698 -2.762109 0.000000 0.000000 0.000000 7.196075 -7.867212 -90.539439 47.670077 -52.011454 24.325435 39.378302 -4.862798 -27.571157 0.000000 0.000000 0.000000 -7.125000 0.000000 0.000000 11.826310 63.643287 -5.384279 0.000000 0.000000 0.000000 -111.478482 -24.717098 -29.694305 -12.884572 -21.117882 -2.411518 -37.331995 -3.831964 -8.796492 0.000000 0.000000 0.000000 7.125000 0.000000 0.000000 -7.388759 19.016825 -4.615523
-1.478307 17.648922 -2.137342 24.372012 27.645394 75.555399 0.000000 0.000000 0.000000 -2.044776 -13.563251 -29.732623 2.679292 10.156840 29.486099 0.296364 1.350449 9.898627 0.508301 -4.568241 -12.681422 0.000000 0.000000 0.000000 -2.126124 4.085957 -88.784544 -2.960930 -10.631396 31.046723 0.161151 -8.326428 -7.684462 -1.064136 -6.558436 18.413640 12.558010 9.542742 34.488886 14.234357 16.662362 13.001923 3.064505 7.668342 -3.740477 12.050936 -16.422474 -10.557551 -6.740691 -24.699930 -7.347181 -3.434238 -12.856197 -2.866436 0.000000 0.000000 0.000000 7.546333 -7.906157 -91.013305 47.609977 -51.984882 24.278131 39.430154 -5.021660 -27.603460 0.000000 0.000000 0.000000 -7.125000 0.000000 0.000000 11.897468 63.695323 -5.431615 0.000000 0.000000 0.000000 -111.250900 -24.201957 -29.361755 -12.853892 -21.072795 -2.400476 -37.313453 -4.232232 -9.233369 0.000000 0.000000 0.000000 7.125000 0.000000 0.000000 -7.314588 18.480574 -4.657596
-1.482814 17.657751 -2.123889 24.456610 27.520636 75.664969 0.000000 0.000000 0.000000 -2.202156 -13.285429 -29.301767 2.664743 10.131462 29.403402 0.292508 1.407325 9.820474 0.550265 -4.752092 -13.202905 0.000000 0.000000 0.000000 -2.295648 4.075397 -88.650502 -2.911254 -10.549979 30.776691 0.182666 -8.564298 -7.438255 -1.043459 -6.495723 18.230004 12.774039 9.613991 34.745385 14.080949 16.847152 12.852365 2.717137 7.735595 -3.886457 12.527627 -16.518591 -10.493115 -6.753747 -24.902368 -7.558022 -3.451425 -12.969419 -3.017162 0.000000 0.000000 0.000000 7.908289 -7.947799 -91.481121 47.562975 -51.964038 24.241132 39.466164 -5.162695 -27.673122 0.000000 0.000000 0.000000 -7.125000 0.000000 0.000000 11.943663 63.785413 -5.478137 0.000000 0.000000 0.000000 -110.976924 -23.706441 -28.843635 -12.824923 -21.030100 -2.390046 -37.700835 -4.873828 -9.612133 0.000000 0.000000 0.000000 7.125000 0.000000 0.000000 -7.529499 17.959469 -4.883429
-1.486245 17.667568 -2.110363 24.527204 27.450308 75.742866 0.000000 0.000000 0.000000 -2.298209 -13.007612 -28.871103 2.649858 10.105473 29.318818 0.293190 1.528046 9.807262 0.537486 -4.697388 -13.047418 0.000000 0.000000 0.000000 -2.368339 4.060196 -88.487773 -2.860520 -10.465722 30.498435 0.192343 -8.645473 -7.255487 -0.977261 -6.293003 17.636871 13.054452 9.670659 35.002392 13.942806 17.034589 12.713559 2.360556 7.805096 -4.004870 13.003242 -16.624658 -10.366300 -6.726159 -25.112151 -7.844294 -3.445447 -13.086877 -3.196981 0.000000 0.000000 0.000000 8.279183 -7.953292 -91.925701 47.620128 -51.989346 24.286049 39.429710 -5.230573 -27.781774 0.000000 0.000000 0.000000 -7.125000 0.000000 0.000000 11.884087 63.898492 -5.481804 0.000000 0.000000 0.000000 -110.664433 -23.183073 -28.111752 -12.825603 -21.031205 -2.390302 -38.145402 -5.209787 -9.578005 0.000000 0.000000 0.000000 7.125000 0.000000 0.000000 -7.840946 17.936479 -5.093234
-1.488829 17.677216 -2.096752 24.590520 27.387681 75.826943 0.000000 0.000000 0.000000 -2.384697 -12.710158 -28.487161 2.635989 10.081009 29.239566 0.298359 1.616688 9.879623 0.479339 -4.438699 -12.314595 0.000000 0.000000 0.000000 -2.445093 4.042795 -88.319965 -2.810039 -10.380956 30.219502 0.189069 -8.592322 -7.249027 -0.986478 -6.321861 17.721206 13.321152 9.731390 35.208362 13.811264 17.211700 12.602261 2.031229 7.873666 -4.077661 13.470054 -16.736903 -10.326157 -6.677918 -25.332937 -8.073263 -3.442432 -13.211699 -3.344976 0.000000 0.000000 0.000000 8.599293 -8.015919 -92.321358 47.587307 -51.974788 24.260206 39.246827 -5.332222 -27.969481 0.000000 0.000000 0.000000 -7.125000 0.000000 0.000000 11.608170 64.058546 -5.396005 0.000000 0.000000 0.000000 -110.339499 -22.705665 -27.719109 -12.825775 -21.031463 -2.390388 -38.346203 -4.968240 -9.412006 0.000000 0.000000 0.000000 7.125000 0.000000 0.000000 -8.004102 18.112987 -5.169730
